<mxfile host="app.diagrams.net" modified="2023-06-15T09:41:30.634Z" agent="Mozilla/5.0 (Macintosh; Intel Mac OS X 10_15_7) AppleWebKit/537.36 (KHTML, like Gecko) Chrome/114.0.0.0 Safari/537.36" etag="RYb4tQ1wl9yJROZ0XJ7C" version="21.3.8" type="device">
  <diagram name="Page-1" id="BANn490ye_6RolhnKekB">
    <mxGraphModel dx="1434" dy="711" grid="1" gridSize="10" guides="1" tooltips="1" connect="1" arrows="1" fold="1" page="1" pageScale="1" pageWidth="827" pageHeight="1169" math="0" shadow="0">
      <root>
        <mxCell id="0" />
        <mxCell id="1" parent="0" />
        <mxCell id="gX-ExtPFv4MsS1Y3vf-m-30" style="edgeStyle=orthogonalEdgeStyle;rounded=0;orthogonalLoop=1;jettySize=auto;html=1;" edge="1" parent="1" source="gX-ExtPFv4MsS1Y3vf-m-1" target="gX-ExtPFv4MsS1Y3vf-m-4">
          <mxGeometry relative="1" as="geometry" />
        </mxCell>
        <mxCell id="gX-ExtPFv4MsS1Y3vf-m-1" value="Start" style="ellipse;whiteSpace=wrap;html=1;" vertex="1" parent="1">
          <mxGeometry x="260" y="20" width="120" height="80" as="geometry" />
        </mxCell>
        <mxCell id="gX-ExtPFv4MsS1Y3vf-m-3" value="End" style="ellipse;whiteSpace=wrap;html=1;" vertex="1" parent="1">
          <mxGeometry x="260" y="590" width="120" height="80" as="geometry" />
        </mxCell>
        <mxCell id="gX-ExtPFv4MsS1Y3vf-m-12" value="" style="edgeStyle=orthogonalEdgeStyle;rounded=0;orthogonalLoop=1;jettySize=auto;html=1;" edge="1" parent="1" source="gX-ExtPFv4MsS1Y3vf-m-4" target="gX-ExtPFv4MsS1Y3vf-m-6">
          <mxGeometry relative="1" as="geometry" />
        </mxCell>
        <mxCell id="gX-ExtPFv4MsS1Y3vf-m-4" value="get an input from user about the nth prime number" style="rounded=0;whiteSpace=wrap;html=1;" vertex="1" parent="1">
          <mxGeometry x="260" y="120" width="120" height="60" as="geometry" />
        </mxCell>
        <mxCell id="gX-ExtPFv4MsS1Y3vf-m-27" style="edgeStyle=orthogonalEdgeStyle;rounded=0;orthogonalLoop=1;jettySize=auto;html=1;" edge="1" parent="1" source="gX-ExtPFv4MsS1Y3vf-m-5" target="gX-ExtPFv4MsS1Y3vf-m-21">
          <mxGeometry relative="1" as="geometry" />
        </mxCell>
        <mxCell id="gX-ExtPFv4MsS1Y3vf-m-28" style="edgeStyle=orthogonalEdgeStyle;rounded=0;orthogonalLoop=1;jettySize=auto;html=1;entryX=0.5;entryY=0;entryDx=0;entryDy=0;" edge="1" parent="1" source="gX-ExtPFv4MsS1Y3vf-m-5" target="gX-ExtPFv4MsS1Y3vf-m-6">
          <mxGeometry relative="1" as="geometry" />
        </mxCell>
        <mxCell id="gX-ExtPFv4MsS1Y3vf-m-5" value="def is_prime function to take a number as a parameter and it checks for the prime number&lt;br&gt;" style="rounded=0;whiteSpace=wrap;html=1;" vertex="1" parent="1">
          <mxGeometry x="610" y="180" width="130" height="90" as="geometry" />
        </mxCell>
        <mxCell id="gX-ExtPFv4MsS1Y3vf-m-16" style="edgeStyle=orthogonalEdgeStyle;rounded=0;orthogonalLoop=1;jettySize=auto;html=1;exitX=1;exitY=0.5;exitDx=0;exitDy=0;entryX=0.5;entryY=0;entryDx=0;entryDy=0;" edge="1" parent="1" source="gX-ExtPFv4MsS1Y3vf-m-6" target="gX-ExtPFv4MsS1Y3vf-m-15">
          <mxGeometry relative="1" as="geometry" />
        </mxCell>
        <mxCell id="gX-ExtPFv4MsS1Y3vf-m-6" value="loop infinite until we get nth prime number" style="rhombus;whiteSpace=wrap;html=1;" vertex="1" parent="1">
          <mxGeometry x="255" y="220" width="130" height="120" as="geometry" />
        </mxCell>
        <mxCell id="gX-ExtPFv4MsS1Y3vf-m-25" style="edgeStyle=orthogonalEdgeStyle;rounded=0;orthogonalLoop=1;jettySize=auto;html=1;exitX=0.5;exitY=1;exitDx=0;exitDy=0;" edge="1" parent="1" source="gX-ExtPFv4MsS1Y3vf-m-8" target="gX-ExtPFv4MsS1Y3vf-m-3">
          <mxGeometry relative="1" as="geometry" />
        </mxCell>
        <mxCell id="gX-ExtPFv4MsS1Y3vf-m-8" value="print nth prime" style="shape=parallelogram;perimeter=parallelogramPerimeter;whiteSpace=wrap;html=1;fixedSize=1;" vertex="1" parent="1">
          <mxGeometry x="595" y="555" width="120" height="60" as="geometry" />
        </mxCell>
        <mxCell id="gX-ExtPFv4MsS1Y3vf-m-17" style="edgeStyle=orthogonalEdgeStyle;rounded=0;orthogonalLoop=1;jettySize=auto;html=1;entryX=0;entryY=0.5;entryDx=0;entryDy=0;" edge="1" parent="1" source="gX-ExtPFv4MsS1Y3vf-m-15" target="gX-ExtPFv4MsS1Y3vf-m-5">
          <mxGeometry relative="1" as="geometry" />
        </mxCell>
        <mxCell id="gX-ExtPFv4MsS1Y3vf-m-15" value="increment current number by 1" style="rounded=0;whiteSpace=wrap;html=1;" vertex="1" parent="1">
          <mxGeometry x="370" y="350" width="120" height="60" as="geometry" />
        </mxCell>
        <mxCell id="gX-ExtPFv4MsS1Y3vf-m-20" value="True" style="text;html=1;strokeColor=none;fillColor=none;align=center;verticalAlign=middle;whiteSpace=wrap;rounded=0;" vertex="1" parent="1">
          <mxGeometry x="670" y="310" width="60" height="30" as="geometry" />
        </mxCell>
        <mxCell id="gX-ExtPFv4MsS1Y3vf-m-24" style="edgeStyle=orthogonalEdgeStyle;rounded=0;orthogonalLoop=1;jettySize=auto;html=1;exitX=0.5;exitY=1;exitDx=0;exitDy=0;entryX=0.5;entryY=0;entryDx=0;entryDy=0;" edge="1" parent="1" source="gX-ExtPFv4MsS1Y3vf-m-21" target="gX-ExtPFv4MsS1Y3vf-m-8">
          <mxGeometry relative="1" as="geometry" />
        </mxCell>
        <mxCell id="gX-ExtPFv4MsS1Y3vf-m-31" style="edgeStyle=orthogonalEdgeStyle;rounded=0;orthogonalLoop=1;jettySize=auto;html=1;entryX=0;entryY=0.5;entryDx=0;entryDy=0;" edge="1" parent="1" source="gX-ExtPFv4MsS1Y3vf-m-21" target="gX-ExtPFv4MsS1Y3vf-m-6">
          <mxGeometry relative="1" as="geometry" />
        </mxCell>
        <mxCell id="gX-ExtPFv4MsS1Y3vf-m-21" value="check if its nth prime or not" style="rhombus;whiteSpace=wrap;html=1;" vertex="1" parent="1">
          <mxGeometry x="610" y="380" width="105" height="130" as="geometry" />
        </mxCell>
        <mxCell id="gX-ExtPFv4MsS1Y3vf-m-23" value="True" style="text;html=1;align=center;verticalAlign=middle;resizable=0;points=[];autosize=1;strokeColor=none;fillColor=none;" vertex="1" parent="1">
          <mxGeometry x="670" y="510" width="50" height="30" as="geometry" />
        </mxCell>
        <mxCell id="gX-ExtPFv4MsS1Y3vf-m-29" value="False" style="text;html=1;strokeColor=none;fillColor=none;align=center;verticalAlign=middle;whiteSpace=wrap;rounded=0;" vertex="1" parent="1">
          <mxGeometry x="500" y="180" width="60" height="30" as="geometry" />
        </mxCell>
        <mxCell id="gX-ExtPFv4MsS1Y3vf-m-32" value="False" style="text;html=1;strokeColor=none;fillColor=none;align=center;verticalAlign=middle;whiteSpace=wrap;rounded=0;" vertex="1" parent="1">
          <mxGeometry x="270" y="410" width="60" height="30" as="geometry" />
        </mxCell>
      </root>
    </mxGraphModel>
  </diagram>
</mxfile>
